<svg width="24" height="16" viewBox="0 0 24 16" fill="none" xmlns="http://www.w3.org/2000/svg">
  <path d="M11.0422 4.1157C11.3491 4.04031 11.6698 4 12 4C14.2092 4 15.9999 5.79092 15.9999 8.00003C15.9999 10.2091 14.2091 12 11.9999 12C9.79082 12 7.99994 10.2092 7.99994 8.00003C7.99994 7.66983 8.04024 7.34915 8.11564 7.04225C8.47942 7.35663 8.95315 7.54719 9.47164 7.54719C10.6179 7.54719 11.5471 6.61793 11.5471 5.4717C11.5471 4.9532 11.3565 4.47948 11.0422 4.1157Z" fill="white"/>
  <path fill-rule="evenodd" clip-rule="evenodd" d="M23.9062 7.63032C24.0313 7.86067 24.0313 8.1393 23.9062 8.36965C21.6134 12.5909 17.1415 15.4568 12 15.4568C6.85849 15.4568 2.38657 12.5909 0.0938235 8.36965C-0.0312745 8.1393 -0.0312745 7.86067 0.0938235 7.63032C2.38653 3.40906 6.85857 0.543259 12 0.543259C17.1415 0.543259 21.6135 3.40902 23.9062 7.63032ZM6.28018 8.00001C6.28018 11.1589 8.841 13.7198 12 13.7198C15.159 13.7198 17.7198 11.159 17.7198 8.00001C17.7198 4.84102 15.159 2.28016 12 2.28016C8.841 2.28016 6.28018 4.84106 6.28018 8.00001Z" fill="white"/>
</svg>
