<svg width="26" height="26" viewBox="0 0 26 26" xmlns="http://www.w3.org/2000/svg">
  <path fill-rule="evenodd" clip-rule="evenodd"
        d="M2.28564 3.35714C2.28564 2.76541 2.76534 2.28571 3.35707 2.28571H10.8571C11.4488 2.28571 11.9285 2.76541 11.9285 3.35714V10.8571C11.9285 11.4489 11.4488 11.9286 10.8571 11.9286H3.35707C2.76534 11.9286 2.28564 11.4489 2.28564 10.8571V3.35714ZM4.4285 4.42857V9.78571H9.78565V4.42857H4.4285Z"
        fill="white"/>
  <path fill-rule="evenodd" clip-rule="evenodd"
        d="M14.0713 3.35714C14.0713 2.76541 14.551 2.28571 15.1427 2.28571H22.6427C23.2345 2.28571 23.7141 2.76541 23.7141 3.35714V10.8571C23.7141 11.4489 23.2345 11.9286 22.6427 11.9286H15.1427C14.551 11.9286 14.0713 11.4489 14.0713 10.8571V3.35714ZM16.2141 4.42857V9.78571H21.5713V4.42857H16.2141Z"
        fill="white"/>
  <path fill-rule="evenodd" clip-rule="evenodd"
        d="M14.0713 15.1429C14.0713 14.5511 14.551 14.0714 15.1427 14.0714H22.6427C23.2345 14.0714 23.7141 14.5511 23.7141 15.1429V22.6429C23.7141 23.2346 23.2345 23.7143 22.6427 23.7143H15.1427C14.551 23.7143 14.0713 23.2346 14.0713 22.6429V15.1429ZM16.2141 16.2143V21.5714H21.5713V16.2143H16.2141Z"
        fill="white"/>
  <path fill-rule="evenodd" clip-rule="evenodd"
        d="M2.28564 15.1429C2.28564 14.5511 2.76534 14.0714 3.35707 14.0714H10.8571C11.4488 14.0714 11.9285 14.5511 11.9285 15.1429V22.6429C11.9285 23.2346 11.4488 23.7143 10.8571 23.7143H3.35707C2.76534 23.7143 2.28564 23.2346 2.28564 22.6429V15.1429ZM4.4285 16.2143V21.5714H9.78565V16.2143H4.4285Z"
        fill="white"/>
</svg>
