<svg width="24" height="24" viewBox="0 0 24 24" fill="none" xmlns="http://www.w3.org/2000/svg">
  <path fill-rule="evenodd" clip-rule="evenodd" d="M5 2C5 0.89543 5.89543 0 7 0H17C18.1046 0 19 0.895431 19 2V22C19 23.1046 18.1046 24 17 24H7C5.89543 24 5 23.1046 5 22V2ZM7.00008 3C7.00008 2.44772 7.4478 2 8.00008 2H16.0001C16.5524 2 17.0001 2.44772 17.0001 3V20H7.00008V3ZM12 23C12.5523 23 13 22.5523 13 22C13 21.4477 12.5523 21 12 21C11.4477 21 11 21.4477 11 22C11 22.5523 11.4477 23 12 23Z" fill="white"/>
</svg>
